<svg version="1.2" xmlns="http://www.w3.org/2000/svg" viewBox="0 0 621 158" width="621" height="158">
	<style>
		.s0 { fill: #000000 } 
	</style>
	<path id="Capa 1" class="s0" d="m30 19c0 0-0.35-8.31 15-8 15.35 0.31 79 2 79 2 0 0 24.74 6.8 20 33-4.74 26.2-15 66-15 66 0 0-13.56 21.1-32 21-18.44-0.1-87 0-87 0 0 0-5.51-1-6-8 5.21-0.2 94-2 94-2l-89-6c0 0-4.04-0.03-1-7 1.51-3.99 2.01-4.9 7-5 4.99-0.1 85-3 85-3v-1l-5-1 3-16c0 0 1.41-2.13 3-2 1.59 0.13 5 0 5 0v-2h-7l4-17 10-1-9-2 2-15 9-2-86-4c0 0-5.51-0.23-4-6 1.51-5.77 3.36-4.84 11-5 7.64-0.16 83-5 83-5zm-11 45h37l-3 13h-36c0 0-2.77-0.54-2-3 0.77-2.46 4-10 4-10zm3-6h37l3-13h-39c0 0-3.81 4.68-4 8-0.19 3.32 3 5 3 5zm-9 26l-3 10c0 0 0.31 3.94 5 4 4.69 0.06 35 0 35 0l3-14-39-1zm170 7l-7 36c0 0 0.04 5.77 5 6 4.96 0.23 24 0 24 0 0 0 7.17-2.62 8-9 0.83-6.38 6-32 6-32l55-70c0 0 4.78-7.62-1-8-5.78-0.38-29-1-29-1 0 0-4.59 0.07-7 4-2.41 3.93-29 37-29 37l-16-37c0 0-0.79-1.61-5-2-4.21-0.39-31 0-31 0 0 0-2.1 2.51-1 6 1.1 3.49 28 70 28 70zm212-55c0 0-2.31 7.4-13 8-10.69 0.6-67 0-67 0 0 0-5.82-0.9-7 7-1.18 7.9 0.44 9.03 7 9 6.56-0.03 48-1 48-1 0 0 31.68-0.07 28 36-3.68 36.07-36.94 38.43-47 38-10.06-0.43-75 0-75 0 0 0-4.4-2.84-4-9 0.4-6.16 3-16 3-16 0 0 0.61-5.61 10-6 9.39-0.39 75 0 75 0 0 0 4.85-5 4-10-0.85-5-3.85-5-11-5-7.15 0-52 0-52 0 0 0-22.71-3.45-20-32 2.71-28.55 23.8-39.7 36-40 12.2-0.3 82 0 82 0 0 0 6.06 1.37 4 11-2.06 9.63-1 10-1 10zm15 99l26 1 30-56c0 0 1.03-2.99 1-6-0.03-3.01-2-7-2-7l-29-52-28-1c0 0-1.79 2.52 0 5 1.79 2.48 31 56 31 56l-30 57c0 0-0.73 1.68 1 3zm101-61l-28 56c0 0-2.24 4.82 0 5 2.24 0.18 28 0 28 0l28-56c0 0 1.94-2.16 2-5 0.06-2.84-2-6-2-6l-30-54h-27c0 0-3.77 1.35-2 4 1.77 2.65 31 56 31 56zm74 61l27-55c0 0 0.73-2.63 1-5 0.27-2.37-1.5-6.93-2-8-0.5-1.07-30-53-30-53h-28c0 0-1.8-0.6-2 2-0.2 2.6 31 59 31 59l-27 56c0 0-1.08 3.9 1 4 2.08 0.1 29 0 29 0z"/>
</svg>